<?xml version="1.0" encoding="utf-8"?>
<!-- Generator: Adobe Illustrator 18.1.1, SVG Export Plug-In . SVG Version: 6.00 Build 0)  -->
<svg version="1.1" id="Layer_1" xmlns="http://www.w3.org/2000/svg" xmlns:xlink="http://www.w3.org/1999/xlink" x="0px" y="0px"
   viewBox="0 0 432 180" enable-background="new 0 0 432 180" xml:space="preserve">
<line class="logoLine dot1" fill="none" stroke="#000000" stroke-width="2" stroke-miterlimit="10" x1="40.6" y1="67.5" x2="40.6" y2="104"/>
<path class="logoLine" fill="none" stroke="#000000" stroke-width="2" stroke-miterlimit="10" d="M76.1,85.5"/>
<path class="logoLine dot1" fill="none" stroke="#000000" stroke-width="2" stroke-miterlimit="10" d="M104.2,100.8c-2.9,1.9-6.3,2.9-9.9,2.9
  c-6.9,0-12.9-3.8-16-9.5"/>
<path class="logoLine" fill="none" stroke="#000000" stroke-width="2" stroke-miterlimit="10" d="M104.2,100.8"/>
<path class="logoLine" fill="none" stroke="#000000" stroke-width="2" stroke-miterlimit="10" d="M109.8,95.1"/>
<path class="logoLine dot1" fill="none" stroke="#000000" stroke-width="2" stroke-miterlimit="10" d="M103,69.5c5.7,3.1,9.5,9.1,9.5,16
  c0,3.5-1,6.8-2.7,9.6"/>
<path class="logoLine" fill="none" stroke="#000000" stroke-width="2" stroke-miterlimit="10" d="M103,69.5"/>
<path class="logoLine dot1" fill="none" stroke="#000000" stroke-width="2" stroke-miterlimit="10" d="M93.8,67.3c0.2,0,0.3,0,0.5,0"/>
<path class="logoLine dot1" fill="none" stroke="#000000" stroke-width="2" stroke-miterlimit="10" d="M76.1,85.5c0-9.9,7.9-18,17.7-18.2"/>
<path class="logoLine dot1" fill="none" stroke="#000000" stroke-width="2" stroke-miterlimit="10" d="M67.7,92.5c-2.3,5.3-7.2,9.2-13.1,10.2"/>
<path class="logoLine dot1" fill="none" stroke="#000000" stroke-width="2" stroke-miterlimit="10" d="M55.6,68.6c5.5,1.3,10.1,5.1,12.2,10.3"/>
<polyline class="logoLine dot1" fill="none" stroke="#000000" stroke-width="2" stroke-miterlimit="10" points="123.2,104 123.2,68.1 135.5,68.1 "/>
<line class="logoLine dash" fill="none" stroke="#000000" stroke-width="2" stroke-miterlimit="10" x1="318.1" y1="67.5" x2="333.4" y2="103.4"/>
<line class="logoLine dash" fill="none" stroke="#000000" stroke-width="2" stroke-miterlimit="10" x1="309.5" y1="89.4" x2="303.3" y2="103.6"/>
<path class="logoLine dash" fill="none" stroke="#000000" stroke-width="2" stroke-miterlimit="10" d="M351.1,102.8c-1.5,0-3.1-0.2-4.7-0.9
  c-4.1-1.6-6.7-5.3-7.1-9.4"/>
<path class="logoLine dash" fill="none" stroke="#000000" stroke-width="2" stroke-miterlimit="10" d="M343.4,67.7c4.6-3.1,10.8-1.9,13.9,2.6"/>
<path class="logoLine dash" fill="none" stroke="#000000" stroke-width="2" stroke-miterlimit="10" d="M344.8,81.4c2.9,1.4,6.8,2.8,8.3,3.5
  c1.7,0.9,4.8,2.8,5.6,5.6"/>
<line class="logoLine dash" fill="none" stroke="#000000" stroke-width="2" stroke-miterlimit="10" x1="367.6" y1="67.5" x2="367.6" y2="79.8"/>
<line class="logoLine dash" fill="none" stroke="#000000" stroke-width="2" stroke-miterlimit="10" x1="367.6" y1="91.3" x2="367.6" y2="104.1"/>
<line class="logoLine dash" fill="none" stroke="#000000" stroke-width="2" stroke-miterlimit="10" x1="391.8" y1="91.6" x2="391.8" y2="104"/>
<line class="logoLine dash" fill="none" stroke="#000000" stroke-width="2" stroke-miterlimit="10" x1="374" y1="85.6" x2="386.4" y2="85.6"/>
<line class="logoLine dot2" fill="none" stroke="#000000" stroke-width="2" stroke-miterlimit="10" x1="156.1" y1="67.2" x2="156.1" y2="103.8"/>
<path class="logoLine" fill="none" stroke="#000000" stroke-width="2" stroke-miterlimit="10" d="M191.6,85.2"/>
<path class="logoLine dot2" fill="none" stroke="#000000" stroke-width="2" stroke-miterlimit="10" d="M219.7,100.5c-2.9,1.9-6.3,2.9-9.9,2.9
  c-6.9,0-12.9-3.8-16-9.5"/>
<path class="logoLine" fill="none" stroke="#000000" stroke-width="2" stroke-miterlimit="10" d="M219.7,100.5"/>
<path class="logoLine" fill="none" stroke="#000000" stroke-width="2" stroke-miterlimit="10" d="M225.3,94.8"/>
<path class="logoLine dot2" fill="none" stroke="#000000" stroke-width="2" stroke-miterlimit="10" d="M218.5,69.2c5.7,3.1,9.5,9.1,9.5,16
  c0,3.5-1,6.8-2.7,9.6"/>
<path class="logoLine" fill="none" stroke="#000000" stroke-width="2" stroke-miterlimit="10" d="M218.5,69.2"/>
<path class="logoLine dot2" fill="none" stroke="#000000" stroke-width="2" stroke-miterlimit="10" d="M209.3,67c0.2,0,0.3,0,0.5,0"/>
<path class="logoLine dot2" fill="none" stroke="#000000" stroke-width="2" stroke-miterlimit="10" d="M191.6,85.2c0-9.9,7.9-18,17.7-18.2"/>
<path class="logoLine dot2" fill="none" stroke="#000000" stroke-width="2" stroke-miterlimit="10" d="M183.2,92.2c-2.3,5.3-7.2,9.2-13.1,10.2"/>
<path class="logoLine dot2" fill="none" stroke="#000000" stroke-width="2" stroke-miterlimit="10" d="M171.1,68.3c5.5,1.3,10.1,5.1,12.2,10.3"/>
<polyline class="logoLine dot2" fill="none" stroke="#000000" stroke-width="2" stroke-miterlimit="10" points="238.7,103.7 238.7,67.9 251,67.9 "/>
<line class="logoLine dash" fill="none" stroke="#000000" stroke-width="2" stroke-miterlimit="10" x1="271.8" y1="67.2" x2="271.8" y2="103.8"/>
<path class="logoLine dash" fill="none" stroke="#000000" stroke-width="2" stroke-miterlimit="10" d="M299,92.2c-2.3,5.3-7.2,9.2-13.1,10.2"/>
<path class="logoLine dash" fill="none" stroke="#000000" stroke-width="2" stroke-miterlimit="10" d="M286.9,68.3c5.5,1.3,10.1,5.1,12.2,10.3"/>
</svg>